<svg width="141" height="71" viewBox="0 0 141 71" fill="none" xmlns="http://www.w3.org/2000/svg">
<path d="M15.5449 40H1.81836V20.3945H5.74219V36.0762H15.5449V40ZM30.9668 32.5488C30.9668 33.6426 30.7708 34.6634 30.3789 35.6113C29.987 36.5501 29.4538 37.3659 28.7793 38.0586C28.1048 38.7422 27.3118 39.2845 26.4004 39.6855C25.498 40.0775 24.5273 40.2734 23.4883 40.2734C22.4583 40.2734 21.4876 40.0775 20.5762 39.6855C19.6738 39.2845 18.8809 38.7422 18.1973 38.0586C17.5228 37.3659 16.9896 36.5501 16.5977 35.6113C16.2057 34.6634 16.0098 33.6426 16.0098 32.5488C16.0098 31.4368 16.2057 30.4069 16.5977 29.459C16.9896 28.5111 17.5228 27.6953 18.1973 27.0117C18.8809 26.319 19.6738 25.7767 20.5762 25.3848C21.4876 24.9928 22.4583 24.7969 23.4883 24.7969C24.5273 24.7969 25.498 24.9837 26.4004 25.3574C27.3118 25.722 28.1048 26.2461 28.7793 26.9297C29.4538 27.6042 29.987 28.4199 30.3789 29.377C30.7708 30.3249 30.9668 31.3822 30.9668 32.5488ZM27.207 32.5488C27.207 31.9473 27.1068 31.4049 26.9062 30.9219C26.7148 30.4297 26.4505 30.0104 26.1133 29.6641C25.776 29.3086 25.3796 29.0397 24.9238 28.8574C24.4772 28.666 23.9987 28.5703 23.4883 28.5703C22.9779 28.5703 22.4948 28.666 22.0391 28.8574C21.5924 29.0397 21.2005 29.3086 20.8633 29.6641C20.5352 30.0104 20.2754 30.4297 20.084 30.9219C19.8926 31.4049 19.7969 31.9473 19.7969 32.5488C19.7969 33.1139 19.8926 33.638 20.084 34.1211C20.2754 34.6042 20.5352 35.0234 20.8633 35.3789C21.2005 35.7344 21.5924 36.0169 22.0391 36.2266C22.4948 36.4271 22.9779 36.5273 23.4883 36.5273C23.9987 36.5273 24.4772 36.4316 24.9238 36.2402C25.3796 36.0488 25.776 35.7799 26.1133 35.4336C26.4505 35.0872 26.7148 34.668 26.9062 34.1758C27.1068 33.6836 27.207 33.1413 27.207 32.5488ZM45.8281 28.2695L43.0938 31.0176C42.957 30.6348 42.7702 30.293 42.5332 29.9922C42.2962 29.6823 42.0273 29.4225 41.7266 29.2129C41.4349 29.0033 41.1159 28.8438 40.7695 28.7344C40.4232 28.625 40.0677 28.5703 39.7031 28.5703C39.1927 28.5703 38.7096 28.6751 38.2539 28.8848C37.8073 29.0944 37.4154 29.3906 37.0781 29.7734C36.75 30.1471 36.4902 30.5938 36.2988 31.1133C36.1074 31.6328 36.0117 32.207 36.0117 32.8359C36.0117 33.3464 36.1074 33.8249 36.2988 34.2715C36.4902 34.7181 36.75 35.11 37.0781 35.4473C37.4154 35.7845 37.8073 36.0488 38.2539 36.2402C38.7096 36.4316 39.1927 36.5273 39.7031 36.5273C40.0677 36.5273 40.4186 36.4772 40.7559 36.377C41.0931 36.2767 41.4076 36.1354 41.6992 35.9531C42 35.7617 42.2643 35.5339 42.4922 35.2695C42.7292 34.9961 42.9206 34.6953 43.0664 34.3672L45.8008 37.1152C45.4544 37.6074 45.0534 38.0495 44.5977 38.4414C44.151 38.8333 43.6634 39.166 43.1348 39.4395C42.6152 39.7129 42.0638 39.918 41.4805 40.0547C40.9062 40.2005 40.3138 40.2734 39.7031 40.2734C38.6732 40.2734 37.7025 40.082 36.791 39.6992C35.8887 39.3073 35.0957 38.7741 34.4121 38.0996C33.7376 37.4251 33.2044 36.6367 32.8125 35.7344C32.4206 34.832 32.2246 33.8659 32.2246 32.8359C32.2246 31.7148 32.4206 30.6667 32.8125 29.6914C33.2044 28.7161 33.7376 27.8685 34.4121 27.1484C35.0957 26.4193 35.8887 25.8451 36.791 25.4258C37.7025 25.0065 38.6732 24.7969 39.7031 24.7969C40.3138 24.7969 40.9108 24.8743 41.4941 25.0293C42.0866 25.1842 42.6471 25.4121 43.1758 25.7129C43.7135 26.0046 44.2057 26.3646 44.6523 26.793C45.1081 27.2214 45.5 27.7135 45.8281 28.2695ZM61.6191 40H60.7168L59.2676 37.9902C58.9121 38.3092 58.5339 38.61 58.1328 38.8926C57.7409 39.166 57.3262 39.4076 56.8887 39.6172C56.4512 39.8177 56 39.9772 55.5352 40.0957C55.0794 40.2142 54.6146 40.2734 54.1406 40.2734C53.1107 40.2734 52.14 40.1003 51.2285 39.7539C50.3262 39.4076 49.5332 38.9062 48.8496 38.25C48.1751 37.5846 47.6419 36.7734 47.25 35.8164C46.8581 34.8594 46.6621 33.7702 46.6621 32.5488C46.6621 31.4095 46.8581 30.3659 47.25 29.418C47.6419 28.4609 48.1751 27.6406 48.8496 26.957C49.5332 26.2734 50.3262 25.7448 51.2285 25.3711C52.14 24.9883 53.1107 24.7969 54.1406 24.7969C54.6146 24.7969 55.084 24.8561 55.5488 24.9746C56.0137 25.0931 56.4648 25.2572 56.9023 25.4668C57.3398 25.6764 57.7546 25.9225 58.1465 26.2051C58.5475 26.4876 58.9212 26.793 59.2676 27.1211L60.7168 25.3848H61.6191V40ZM57.8594 32.5488C57.8594 32.0384 57.7591 31.5462 57.5586 31.0723C57.3672 30.5892 57.1029 30.1654 56.7656 29.8008C56.4284 29.4271 56.0319 29.1309 55.5762 28.9121C55.1296 28.6842 54.651 28.5703 54.1406 28.5703C53.6302 28.5703 53.1471 28.6569 52.6914 28.8301C52.2448 29.0033 51.8529 29.2585 51.5156 29.5957C51.1875 29.9329 50.9277 30.3522 50.7363 30.8535C50.5449 31.3457 50.4492 31.9108 50.4492 32.5488C50.4492 33.1868 50.5449 33.7565 50.7363 34.2578C50.9277 34.75 51.1875 35.1647 51.5156 35.502C51.8529 35.8392 52.2448 36.0944 52.6914 36.2676C53.1471 36.4408 53.6302 36.5273 54.1406 36.5273C54.651 36.5273 55.1296 36.418 55.5762 36.1992C56.0319 35.9714 56.4284 35.6751 56.7656 35.3105C57.1029 34.9368 57.3672 34.513 57.5586 34.0391C57.7591 33.556 57.8594 33.0592 57.8594 32.5488ZM68.2363 40H64.4766V19.5332H68.2363V40ZM83.2617 40H79.3379V20.3945H93.0645V24.3184H83.2617V28.2422H89.1406V32.166H83.2617V40ZM107.119 32.5488C107.119 33.6426 106.923 34.6634 106.531 35.6113C106.139 36.5501 105.606 37.3659 104.932 38.0586C104.257 38.7422 103.464 39.2845 102.553 39.6855C101.65 40.0775 100.68 40.2734 99.6406 40.2734C98.6107 40.2734 97.64 40.0775 96.7285 39.6855C95.8262 39.2845 95.0332 38.7422 94.3496 38.0586C93.6751 37.3659 93.1419 36.5501 92.75 35.6113C92.3581 34.6634 92.1621 33.6426 92.1621 32.5488C92.1621 31.4368 92.3581 30.4069 92.75 29.459C93.1419 28.5111 93.6751 27.6953 94.3496 27.0117C95.0332 26.319 95.8262 25.7767 96.7285 25.3848C97.64 24.9928 98.6107 24.7969 99.6406 24.7969C100.68 24.7969 101.65 24.9837 102.553 25.3574C103.464 25.722 104.257 26.2461 104.932 26.9297C105.606 27.6042 106.139 28.4199 106.531 29.377C106.923 30.3249 107.119 31.3822 107.119 32.5488ZM103.359 32.5488C103.359 31.9473 103.259 31.4049 103.059 30.9219C102.867 30.4297 102.603 30.0104 102.266 29.6641C101.928 29.3086 101.532 29.0397 101.076 28.8574C100.63 28.666 100.151 28.5703 99.6406 28.5703C99.1302 28.5703 98.6471 28.666 98.1914 28.8574C97.7448 29.0397 97.3529 29.3086 97.0156 29.6641C96.6875 30.0104 96.4277 30.4297 96.2363 30.9219C96.0449 31.4049 95.9492 31.9473 95.9492 32.5488C95.9492 33.1139 96.0449 33.638 96.2363 34.1211C96.4277 34.6042 96.6875 35.0234 97.0156 35.3789C97.3529 35.7344 97.7448 36.0169 98.1914 36.2266C98.6471 36.4271 99.1302 36.5273 99.6406 36.5273C100.151 36.5273 100.63 36.4316 101.076 36.2402C101.532 36.0488 101.928 35.7799 102.266 35.4336C102.603 35.0872 102.867 34.668 103.059 34.1758C103.259 33.6836 103.359 33.1413 103.359 32.5488ZM123.334 32.5488C123.334 33.6426 123.138 34.6634 122.746 35.6113C122.354 36.5501 121.821 37.3659 121.146 38.0586C120.472 38.7422 119.679 39.2845 118.768 39.6855C117.865 40.0775 116.895 40.2734 115.855 40.2734C114.826 40.2734 113.855 40.0775 112.943 39.6855C112.041 39.2845 111.248 38.7422 110.564 38.0586C109.89 37.3659 109.357 36.5501 108.965 35.6113C108.573 34.6634 108.377 33.6426 108.377 32.5488C108.377 31.4368 108.573 30.4069 108.965 29.459C109.357 28.5111 109.89 27.6953 110.564 27.0117C111.248 26.319 112.041 25.7767 112.943 25.3848C113.855 24.9928 114.826 24.7969 115.855 24.7969C116.895 24.7969 117.865 24.9837 118.768 25.3574C119.679 25.722 120.472 26.2461 121.146 26.9297C121.821 27.6042 122.354 28.4199 122.746 29.377C123.138 30.3249 123.334 31.3822 123.334 32.5488ZM119.574 32.5488C119.574 31.9473 119.474 31.4049 119.273 30.9219C119.082 30.4297 118.818 30.0104 118.48 29.6641C118.143 29.3086 117.747 29.0397 117.291 28.8574C116.844 28.666 116.366 28.5703 115.855 28.5703C115.345 28.5703 114.862 28.666 114.406 28.8574C113.96 29.0397 113.568 29.3086 113.23 29.6641C112.902 30.0104 112.643 30.4297 112.451 30.9219C112.26 31.4049 112.164 31.9473 112.164 32.5488C112.164 33.1139 112.26 33.638 112.451 34.1211C112.643 34.6042 112.902 35.0234 113.23 35.3789C113.568 35.7344 113.96 36.0169 114.406 36.2266C114.862 36.4271 115.345 36.5273 115.855 36.5273C116.366 36.5273 116.844 36.4316 117.291 36.2402C117.747 36.0488 118.143 35.7799 118.48 35.4336C118.818 35.0872 119.082 34.668 119.273 34.1758C119.474 33.6836 119.574 33.1413 119.574 32.5488ZM139.549 40H138.646L137.197 37.9902C136.842 38.3092 136.464 38.61 136.062 38.8926C135.671 39.166 135.256 39.4076 134.818 39.6172C134.381 39.8177 133.93 39.9772 133.465 40.0957C133.009 40.2142 132.544 40.2734 132.07 40.2734C131.04 40.2734 130.07 40.082 129.158 39.6992C128.256 39.3073 127.463 38.7695 126.779 38.0859C126.105 37.3932 125.572 36.5775 125.18 35.6387C124.788 34.6908 124.592 33.6608 124.592 32.5488C124.592 31.446 124.788 30.4206 125.18 29.4727C125.572 28.5247 126.105 27.7044 126.779 27.0117C127.463 26.319 128.256 25.7767 129.158 25.3848C130.07 24.9928 131.04 24.7969 132.07 24.7969C132.398 24.7969 132.736 24.8242 133.082 24.8789C133.438 24.9336 133.779 25.0247 134.107 25.1523C134.445 25.2708 134.759 25.4303 135.051 25.6309C135.342 25.8314 135.589 26.0775 135.789 26.3691V19.5332H139.549V40ZM135.789 32.5488C135.789 32.0384 135.689 31.5462 135.488 31.0723C135.297 30.5892 135.033 30.1654 134.695 29.8008C134.358 29.4271 133.962 29.1309 133.506 28.9121C133.059 28.6842 132.581 28.5703 132.07 28.5703C131.56 28.5703 131.077 28.6615 130.621 28.8438C130.174 29.026 129.783 29.2904 129.445 29.6367C129.117 29.974 128.857 30.3887 128.666 30.8809C128.475 31.373 128.379 31.929 128.379 32.5488C128.379 33.0866 128.475 33.597 128.666 34.0801C128.857 34.5632 129.117 34.987 129.445 35.3516C129.783 35.7161 130.174 36.0033 130.621 36.2129C131.077 36.4225 131.56 36.5273 132.07 36.5273C132.581 36.5273 133.059 36.418 133.506 36.1992C133.962 35.9714 134.358 35.6751 134.695 35.3105C135.033 34.9368 135.297 34.513 135.488 34.0391C135.689 33.556 135.789 33.0592 135.789 32.5488Z" fill="black"/>
<path d="M15.2578 64H1.81836V44.3945H15.2578V48.3184H5.74219V52.2422H12.1816V56.166H5.74219V60.0762H15.2578V64ZM31.0898 64H26.5234L23.6113 59.5156L20.6719 64H16.1055L21.4512 56.4941L16.1055 49.2754H20.6719L23.6113 53.4727L26.5234 49.2754H31.0898L25.7305 56.4941L31.0898 64ZM36.1895 69.5781H32.4297V49.3574H33.332L34.8223 51.1211C35.1595 50.8021 35.5286 50.5013 35.9297 50.2188C36.3307 49.9362 36.7454 49.6947 37.1738 49.4941C37.6113 49.2845 38.0625 49.1204 38.5273 49.002C38.9922 48.8835 39.4616 48.8242 39.9355 48.8242C40.9655 48.8242 41.9316 49.0111 42.834 49.3848C43.7454 49.7493 44.5384 50.2689 45.2129 50.9434C45.8965 51.6178 46.4342 52.4336 46.8262 53.3906C47.2181 54.3385 47.4141 55.3913 47.4141 56.5488C47.4141 57.752 47.2181 58.8366 46.8262 59.8027C46.4342 60.7598 45.8965 61.5755 45.2129 62.25C44.5384 62.9154 43.7454 63.4258 42.834 63.7812C41.9316 64.1367 40.9655 64.3145 39.9355 64.3145C39.6074 64.3145 39.2793 64.278 38.9512 64.2051C38.6322 64.1322 38.3132 64.0365 37.9941 63.918C37.6842 63.7904 37.3743 63.6491 37.0645 63.4941C36.7637 63.3392 36.472 63.1797 36.1895 63.0156V69.5781ZM43.668 56.5488C43.668 55.929 43.5677 55.373 43.3672 54.8809C43.1758 54.3887 42.9115 53.974 42.5742 53.6367C42.237 53.2904 41.8405 53.026 41.3848 52.8438C40.929 52.6615 40.446 52.5703 39.9355 52.5703C39.4251 52.5703 38.9421 52.6615 38.4863 52.8438C38.0397 53.026 37.6478 53.2904 37.3105 53.6367C36.9733 53.974 36.7044 54.3887 36.5039 54.8809C36.3125 55.373 36.2168 55.929 36.2168 56.5488C36.2168 57.1413 36.3125 57.6836 36.5039 58.1758C36.7044 58.668 36.9733 59.0872 37.3105 59.4336C37.6478 59.7799 38.0397 60.0488 38.4863 60.2402C38.9421 60.4316 39.4251 60.5273 39.9355 60.5273C40.446 60.5273 40.929 60.4316 41.3848 60.2402C41.8405 60.0488 42.237 59.7799 42.5742 59.4336C42.9115 59.0872 43.1758 58.668 43.3672 58.1758C43.5677 57.6836 43.668 57.1413 43.668 56.5488ZM55.3164 60.418C55.4622 60.4635 55.6081 60.4954 55.7539 60.5137C55.8997 60.5228 56.0456 60.5273 56.1914 60.5273C56.556 60.5273 56.9069 60.4772 57.2441 60.377C57.5814 60.2767 57.8958 60.1354 58.1875 59.9531C58.4883 59.7617 58.7526 59.5339 58.9805 59.2695C59.2174 58.9961 59.4089 58.6953 59.5547 58.3672L62.2891 61.1152C61.9427 61.6074 61.5417 62.0495 61.0859 62.4414C60.6393 62.8333 60.1517 63.166 59.623 63.4395C59.1035 63.7129 58.5521 63.918 57.9688 64.0547C57.3945 64.2005 56.8021 64.2734 56.1914 64.2734C55.1615 64.2734 54.1908 64.082 53.2793 63.6992C52.377 63.3164 51.584 62.7832 50.9004 62.0996C50.2259 61.416 49.6927 60.6048 49.3008 59.666C48.9089 58.7181 48.7129 57.679 48.7129 56.5488C48.7129 55.3913 48.9089 54.334 49.3008 53.377C49.6927 52.4199 50.2259 51.6042 50.9004 50.9297C51.584 50.2552 52.377 49.7311 53.2793 49.3574C54.1908 48.9837 55.1615 48.7969 56.1914 48.7969C56.8021 48.7969 57.3991 48.8698 57.9824 49.0156C58.5658 49.1615 59.1172 49.3711 59.6367 49.6445C60.1654 49.918 60.6576 50.2552 61.1133 50.6562C61.569 51.0482 61.9701 51.4902 62.3164 51.9824L55.3164 60.418ZM57.2305 52.7207C57.0573 52.6569 56.8841 52.6159 56.7109 52.5977C56.5469 52.5794 56.3737 52.5703 56.1914 52.5703C55.681 52.5703 55.1979 52.666 54.7422 52.8574C54.2956 53.0397 53.9036 53.304 53.5664 53.6504C53.2383 53.9967 52.9785 54.416 52.7871 54.9082C52.5957 55.3913 52.5 55.9382 52.5 56.5488C52.5 56.6855 52.5046 56.8405 52.5137 57.0137C52.5319 57.1868 52.5547 57.3646 52.582 57.5469C52.6185 57.7201 52.6595 57.8887 52.7051 58.0527C52.7507 58.2168 52.8099 58.3626 52.8828 58.4902L57.2305 52.7207ZM67.9355 64H64.2031V49.3574H65.1055L66.3359 51.0938C66.9375 50.5469 67.6211 50.1276 68.3867 49.8359C69.1523 49.5352 69.9453 49.3848 70.7656 49.3848H74.0605V53.1035H70.7656C70.3737 53.1035 70.0046 53.1764 69.6582 53.3223C69.3118 53.4681 69.0111 53.6686 68.7559 53.9238C68.5007 54.179 68.3001 54.4798 68.1543 54.8262C68.0085 55.1725 67.9355 55.5417 67.9355 55.9336V64ZM80.1992 45.3789C80.1992 45.7253 80.1309 46.0488 79.9941 46.3496C79.8665 46.6504 79.6888 46.9147 79.4609 47.1426C79.2331 47.3613 78.9642 47.5391 78.6543 47.6758C78.3535 47.8034 78.0299 47.8672 77.6836 47.8672C77.3372 47.8672 77.0091 47.8034 76.6992 47.6758C76.3984 47.5391 76.1341 47.3613 75.9062 47.1426C75.6875 46.9147 75.5098 46.6504 75.373 46.3496C75.2454 46.0488 75.1816 45.7253 75.1816 45.3789C75.1816 45.0417 75.2454 44.7227 75.373 44.4219C75.5098 44.112 75.6875 43.8477 75.9062 43.6289C76.1341 43.401 76.3984 43.2233 76.6992 43.0957C77.0091 42.959 77.3372 42.8906 77.6836 42.8906C78.0299 42.8906 78.3535 42.959 78.6543 43.0957C78.9642 43.2233 79.2331 43.401 79.4609 43.6289C79.6888 43.8477 79.8665 44.112 79.9941 44.4219C80.1309 44.7227 80.1992 45.0417 80.1992 45.3789ZM79.5566 64H75.7969V49.3574H79.5566V64ZM88.2383 60.418C88.3841 60.4635 88.5299 60.4954 88.6758 60.5137C88.8216 60.5228 88.9674 60.5273 89.1133 60.5273C89.4779 60.5273 89.8288 60.4772 90.166 60.377C90.5033 60.2767 90.8177 60.1354 91.1094 59.9531C91.4102 59.7617 91.6745 59.5339 91.9023 59.2695C92.1393 58.9961 92.3307 58.6953 92.4766 58.3672L95.2109 61.1152C94.8646 61.6074 94.4635 62.0495 94.0078 62.4414C93.5612 62.8333 93.0736 63.166 92.5449 63.4395C92.0254 63.7129 91.474 63.918 90.8906 64.0547C90.3164 64.2005 89.724 64.2734 89.1133 64.2734C88.0833 64.2734 87.1126 64.082 86.2012 63.6992C85.2988 63.3164 84.5059 62.7832 83.8223 62.0996C83.1478 61.416 82.6146 60.6048 82.2227 59.666C81.8307 58.7181 81.6348 57.679 81.6348 56.5488C81.6348 55.3913 81.8307 54.334 82.2227 53.377C82.6146 52.4199 83.1478 51.6042 83.8223 50.9297C84.5059 50.2552 85.2988 49.7311 86.2012 49.3574C87.1126 48.9837 88.0833 48.7969 89.1133 48.7969C89.724 48.7969 90.321 48.8698 90.9043 49.0156C91.4876 49.1615 92.0391 49.3711 92.5586 49.6445C93.0872 49.918 93.5794 50.2552 94.0352 50.6562C94.4909 51.0482 94.8919 51.4902 95.2383 51.9824L88.2383 60.418ZM90.1523 52.7207C89.9792 52.6569 89.806 52.6159 89.6328 52.5977C89.4688 52.5794 89.2956 52.5703 89.1133 52.5703C88.6029 52.5703 88.1198 52.666 87.6641 52.8574C87.2174 53.0397 86.8255 53.304 86.4883 53.6504C86.1602 53.9967 85.9004 54.416 85.709 54.9082C85.5176 55.3913 85.4219 55.9382 85.4219 56.5488C85.4219 56.6855 85.4264 56.8405 85.4355 57.0137C85.4538 57.1868 85.4766 57.3646 85.5039 57.5469C85.5404 57.7201 85.5814 57.8887 85.627 58.0527C85.6725 58.2168 85.7318 58.3626 85.8047 58.4902L90.1523 52.7207ZM100.857 64H97.125V49.3574H98.0273L99.2578 50.7793C99.8594 50.2324 100.538 49.8132 101.295 49.5215C102.061 49.2207 102.858 49.0703 103.688 49.0703C104.581 49.0703 105.424 49.2435 106.217 49.5898C107.01 49.9271 107.702 50.3965 108.295 50.998C108.887 51.5905 109.352 52.2878 109.689 53.0898C110.036 53.8828 110.209 54.7305 110.209 55.6328V64H106.477V55.6328C106.477 55.25 106.404 54.89 106.258 54.5527C106.112 54.2064 105.911 53.9056 105.656 53.6504C105.401 53.3952 105.105 53.1947 104.768 53.0488C104.43 52.903 104.07 52.8301 103.688 52.8301C103.296 52.8301 102.926 52.903 102.58 53.0488C102.234 53.1947 101.933 53.3952 101.678 53.6504C101.423 53.9056 101.222 54.2064 101.076 54.5527C100.93 54.89 100.857 55.25 100.857 55.6328V64ZM125.672 52.2695L122.938 55.0176C122.801 54.6348 122.614 54.293 122.377 53.9922C122.14 53.6823 121.871 53.4225 121.57 53.2129C121.279 53.0033 120.96 52.8438 120.613 52.7344C120.267 52.625 119.911 52.5703 119.547 52.5703C119.036 52.5703 118.553 52.6751 118.098 52.8848C117.651 53.0944 117.259 53.3906 116.922 53.7734C116.594 54.1471 116.334 54.5938 116.143 55.1133C115.951 55.6328 115.855 56.207 115.855 56.8359C115.855 57.3464 115.951 57.8249 116.143 58.2715C116.334 58.7181 116.594 59.11 116.922 59.4473C117.259 59.7845 117.651 60.0488 118.098 60.2402C118.553 60.4316 119.036 60.5273 119.547 60.5273C119.911 60.5273 120.262 60.4772 120.6 60.377C120.937 60.2767 121.251 60.1354 121.543 59.9531C121.844 59.7617 122.108 59.5339 122.336 59.2695C122.573 58.9961 122.764 58.6953 122.91 58.3672L125.645 61.1152C125.298 61.6074 124.897 62.0495 124.441 62.4414C123.995 62.8333 123.507 63.166 122.979 63.4395C122.459 63.7129 121.908 63.918 121.324 64.0547C120.75 64.2005 120.158 64.2734 119.547 64.2734C118.517 64.2734 117.546 64.082 116.635 63.6992C115.732 63.3073 114.939 62.7741 114.256 62.0996C113.581 61.4251 113.048 60.6367 112.656 59.7344C112.264 58.832 112.068 57.8659 112.068 56.8359C112.068 55.7148 112.264 54.6667 112.656 53.6914C113.048 52.7161 113.581 51.8685 114.256 51.1484C114.939 50.4193 115.732 49.8451 116.635 49.4258C117.546 49.0065 118.517 48.7969 119.547 48.7969C120.158 48.7969 120.755 48.8743 121.338 49.0293C121.93 49.1842 122.491 49.4121 123.02 49.7129C123.557 50.0046 124.049 50.3646 124.496 50.793C124.952 51.2214 125.344 51.7135 125.672 52.2695ZM133.109 60.418C133.255 60.4635 133.401 60.4954 133.547 60.5137C133.693 60.5228 133.839 60.5273 133.984 60.5273C134.349 60.5273 134.7 60.4772 135.037 60.377C135.374 60.2767 135.689 60.1354 135.98 59.9531C136.281 59.7617 136.546 59.5339 136.773 59.2695C137.01 58.9961 137.202 58.6953 137.348 58.3672L140.082 61.1152C139.736 61.6074 139.335 62.0495 138.879 62.4414C138.432 62.8333 137.945 63.166 137.416 63.4395C136.896 63.7129 136.345 63.918 135.762 64.0547C135.188 64.2005 134.595 64.2734 133.984 64.2734C132.954 64.2734 131.984 64.082 131.072 63.6992C130.17 63.3164 129.377 62.7832 128.693 62.0996C128.019 61.416 127.486 60.6048 127.094 59.666C126.702 58.7181 126.506 57.679 126.506 56.5488C126.506 55.3913 126.702 54.334 127.094 53.377C127.486 52.4199 128.019 51.6042 128.693 50.9297C129.377 50.2552 130.17 49.7311 131.072 49.3574C131.984 48.9837 132.954 48.7969 133.984 48.7969C134.595 48.7969 135.192 48.8698 135.775 49.0156C136.359 49.1615 136.91 49.3711 137.43 49.6445C137.958 49.918 138.451 50.2552 138.906 50.6562C139.362 51.0482 139.763 51.4902 140.109 51.9824L133.109 60.418ZM135.023 52.7207C134.85 52.6569 134.677 52.6159 134.504 52.5977C134.34 52.5794 134.167 52.5703 133.984 52.5703C133.474 52.5703 132.991 52.666 132.535 52.8574C132.089 53.0397 131.697 53.304 131.359 53.6504C131.031 53.9967 130.771 54.416 130.58 54.9082C130.389 55.3913 130.293 55.9382 130.293 56.5488C130.293 56.6855 130.298 56.8405 130.307 57.0137C130.325 57.1868 130.348 57.3646 130.375 57.5469C130.411 57.7201 130.452 57.8887 130.498 58.0527C130.544 58.2168 130.603 58.3626 130.676 58.4902L135.023 52.7207Z" fill="black"/>
<path d="M140 15L109.5 2L79 15" stroke="black" stroke-width="3"/>
<line x1="118.701" y1="27.0546" x2="123.784" y2="18.25" stroke="black" stroke-width="3"/>
<line x1="91.701" y1="46.0546" x2="96.7843" y2="37.25" stroke="black" stroke-width="3"/>
</svg>
