<svg width="33" height="32" viewBox="0 0 33 32" fill="none" xmlns="http://www.w3.org/2000/svg">
<g clip-path="url(#clip0_7_11)">
<path d="M0 13.2593C0 20.4476 6.03085 26.2956 13.4437 26.2956C16.9868 26.2956 20.2135 24.9589 22.6175 22.7791L31.8964 31.7768L33 30.7068L23.6946 21.6833C25.6848 19.4096 26.8874 16.4683 26.8874 13.2594C26.8874 6.07116 20.8565 0.223157 13.4437 0.223157C6.03085 0.223157 0 6.07105 0 13.2593ZM25.3268 13.2593C25.3268 19.6131 19.9961 24.7822 13.4437 24.7822C6.89127 24.7822 1.56062 19.6131 1.56062 13.2593C1.56062 6.9055 6.89127 1.73638 13.4437 1.73638C19.9961 1.73638 25.3268 6.9056 25.3268 13.2593Z" fill="black"/>
</g>
<defs>
<clipPath id="clip0_7_11">
<rect width="32" height="33" fill="white" transform="translate(0 32) rotate(-90)"/>
</clipPath>
</defs>
</svg>
